<mxfile host="65bd71144e">
    <diagram id="_RTGqNRerQuPFqIfmM1y" name="Page-1">
        <mxGraphModel dx="883" dy="385" grid="1" gridSize="10" guides="1" tooltips="1" connect="1" arrows="1" fold="1" page="1" pageScale="1" pageWidth="827" pageHeight="1169" math="0" shadow="0">
            <root>
                <mxCell id="0"/>
                <mxCell id="1" parent="0"/>
                <mxCell id="YVTOUBuaeelvvUNHEdQm-3" value="" style="rounded=0;whiteSpace=wrap;html=1;" parent="1" vertex="1">
                    <mxGeometry x="500" y="150" width="120" height="60" as="geometry"/>
                </mxCell>
                <mxCell id="YVTOUBuaeelvvUNHEdQm-4" value="Kisat" style="text;html=1;strokeColor=none;fillColor=none;align=center;verticalAlign=middle;whiteSpace=wrap;rounded=0;" parent="1" vertex="1">
                    <mxGeometry x="530" y="165" width="60" height="30" as="geometry"/>
                </mxCell>
                <mxCell id="YVTOUBuaeelvvUNHEdQm-5" value="" style="rounded=0;whiteSpace=wrap;html=1;" parent="1" vertex="1">
                    <mxGeometry x="210" y="150" width="120" height="60" as="geometry"/>
                </mxCell>
                <mxCell id="YVTOUBuaeelvvUNHEdQm-6" value="Pelaajat" style="text;html=1;strokeColor=none;fillColor=none;align=center;verticalAlign=middle;whiteSpace=wrap;rounded=0;" parent="1" vertex="1">
                    <mxGeometry x="240" y="162.5" width="60" height="35" as="geometry"/>
                </mxCell>
                <mxCell id="YVTOUBuaeelvvUNHEdQm-7" value="" style="ellipse;whiteSpace=wrap;html=1;" parent="1" vertex="1">
                    <mxGeometry x="100" y="10" width="120" height="60" as="geometry"/>
                </mxCell>
                <mxCell id="YVTOUBuaeelvvUNHEdQm-8" value="pelaajaID" style="text;html=1;strokeColor=none;fillColor=none;align=center;verticalAlign=middle;whiteSpace=wrap;rounded=0;" parent="1" vertex="1">
                    <mxGeometry x="130" y="25" width="60" height="30" as="geometry"/>
                </mxCell>
                <mxCell id="YVTOUBuaeelvvUNHEdQm-9" value="" style="ellipse;whiteSpace=wrap;html=1;" parent="1" vertex="1">
                    <mxGeometry x="60" y="112.5" width="120" height="60" as="geometry"/>
                </mxCell>
                <mxCell id="YVTOUBuaeelvvUNHEdQm-10" value="Etunimi" style="text;html=1;strokeColor=none;fillColor=none;align=center;verticalAlign=middle;whiteSpace=wrap;rounded=0;" parent="1" vertex="1">
                    <mxGeometry x="90" y="127.5" width="60" height="30" as="geometry"/>
                </mxCell>
                <mxCell id="YVTOUBuaeelvvUNHEdQm-11" value="" style="ellipse;whiteSpace=wrap;html=1;" parent="1" vertex="1">
                    <mxGeometry x="70" y="192.5" width="120" height="60" as="geometry"/>
                </mxCell>
                <mxCell id="YVTOUBuaeelvvUNHEdQm-12" value="Sukunimi" style="text;html=1;strokeColor=none;fillColor=none;align=center;verticalAlign=middle;whiteSpace=wrap;rounded=0;" parent="1" vertex="1">
                    <mxGeometry x="100" y="207.5" width="60" height="25" as="geometry"/>
                </mxCell>
                <mxCell id="YVTOUBuaeelvvUNHEdQm-13" value="" style="ellipse;whiteSpace=wrap;html=1;" parent="1" vertex="1">
                    <mxGeometry x="670" y="112.5" width="120" height="60" as="geometry"/>
                </mxCell>
                <mxCell id="YVTOUBuaeelvvUNHEdQm-14" value="kisaID" style="text;html=1;strokeColor=none;fillColor=none;align=center;verticalAlign=middle;whiteSpace=wrap;rounded=0;" parent="1" vertex="1">
                    <mxGeometry x="700" y="127.5" width="60" height="30" as="geometry"/>
                </mxCell>
                <mxCell id="YVTOUBuaeelvvUNHEdQm-15" value="" style="rounded=0;whiteSpace=wrap;html=1;" parent="1" vertex="1">
                    <mxGeometry x="500" y="347.5" width="120" height="60" as="geometry"/>
                </mxCell>
                <mxCell id="YVTOUBuaeelvvUNHEdQm-16" value="Ottelut" style="text;html=1;strokeColor=none;fillColor=none;align=center;verticalAlign=middle;whiteSpace=wrap;rounded=0;" parent="1" vertex="1">
                    <mxGeometry x="530" y="362.5" width="60" height="30" as="geometry"/>
                </mxCell>
                <mxCell id="YVTOUBuaeelvvUNHEdQm-17" value="" style="ellipse;whiteSpace=wrap;html=1;" parent="1" vertex="1">
                    <mxGeometry x="670" y="292.5" width="120" height="60" as="geometry"/>
                </mxCell>
                <mxCell id="YVTOUBuaeelvvUNHEdQm-18" value="Ottelu" style="text;html=1;strokeColor=none;fillColor=none;align=center;verticalAlign=middle;whiteSpace=wrap;rounded=0;" parent="1" vertex="1">
                    <mxGeometry x="700" y="307.5" width="60" height="30" as="geometry"/>
                </mxCell>
                <mxCell id="YVTOUBuaeelvvUNHEdQm-19" value="" style="ellipse;whiteSpace=wrap;html=1;" parent="1" vertex="1">
                    <mxGeometry x="210" y="277.5" width="120" height="60" as="geometry"/>
                </mxCell>
                <mxCell id="YVTOUBuaeelvvUNHEdQm-21" value="" style="ellipse;whiteSpace=wrap;html=1;" parent="1" vertex="1">
                    <mxGeometry x="670" y="377.5" width="120" height="60" as="geometry"/>
                </mxCell>
                <mxCell id="YVTOUBuaeelvvUNHEdQm-22" value="tulos" style="text;html=1;strokeColor=none;fillColor=none;align=center;verticalAlign=middle;whiteSpace=wrap;rounded=0;" parent="1" vertex="1">
                    <mxGeometry x="700" y="392.5" width="60" height="30" as="geometry"/>
                </mxCell>
                <mxCell id="YVTOUBuaeelvvUNHEdQm-25" value="" style="ellipse;whiteSpace=wrap;html=1;" parent="1" vertex="1">
                    <mxGeometry x="670" y="182.5" width="120" height="60" as="geometry"/>
                </mxCell>
                <mxCell id="YVTOUBuaeelvvUNHEdQm-26" value="Kisannimi" style="text;html=1;strokeColor=none;fillColor=none;align=center;verticalAlign=middle;whiteSpace=wrap;rounded=0;" parent="1" vertex="1">
                    <mxGeometry x="700" y="197.5" width="60" height="30" as="geometry"/>
                </mxCell>
                <mxCell id="YVTOUBuaeelvvUNHEdQm-27" value="" style="ellipse;whiteSpace=wrap;html=1;" parent="1" vertex="1">
                    <mxGeometry x="680" y="447.5" width="120" height="60" as="geometry"/>
                </mxCell>
                <mxCell id="YVTOUBuaeelvvUNHEdQm-28" value="OtteluID" style="text;html=1;strokeColor=none;fillColor=none;align=center;verticalAlign=middle;whiteSpace=wrap;rounded=0;" parent="1" vertex="1">
                    <mxGeometry x="710" y="462.5" width="60" height="30" as="geometry"/>
                </mxCell>
                <mxCell id="YVTOUBuaeelvvUNHEdQm-32" value="" style="endArrow=none;html=1;rounded=0;exitX=0.5;exitY=0;exitDx=0;exitDy=0;entryX=1;entryY=1;entryDx=0;entryDy=0;" parent="1" source="YVTOUBuaeelvvUNHEdQm-5" target="YVTOUBuaeelvvUNHEdQm-7" edge="1">
                    <mxGeometry width="50" height="50" relative="1" as="geometry">
                        <mxPoint x="390" y="230" as="sourcePoint"/>
                        <mxPoint x="440" y="180" as="targetPoint"/>
                    </mxGeometry>
                </mxCell>
                <mxCell id="YVTOUBuaeelvvUNHEdQm-33" value="" style="endArrow=none;html=1;rounded=0;entryX=1;entryY=0.5;entryDx=0;entryDy=0;exitX=0;exitY=0.5;exitDx=0;exitDy=0;" parent="1" source="YVTOUBuaeelvvUNHEdQm-5" target="YVTOUBuaeelvvUNHEdQm-9" edge="1">
                    <mxGeometry width="50" height="50" relative="1" as="geometry">
                        <mxPoint x="390" y="230" as="sourcePoint"/>
                        <mxPoint x="440" y="180" as="targetPoint"/>
                    </mxGeometry>
                </mxCell>
                <mxCell id="YVTOUBuaeelvvUNHEdQm-34" value="" style="endArrow=none;html=1;rounded=0;exitX=1;exitY=0.5;exitDx=0;exitDy=0;entryX=0;entryY=0.5;entryDx=0;entryDy=0;" parent="1" source="YVTOUBuaeelvvUNHEdQm-11" target="YVTOUBuaeelvvUNHEdQm-5" edge="1">
                    <mxGeometry width="50" height="50" relative="1" as="geometry">
                        <mxPoint x="390" y="202.5" as="sourcePoint"/>
                        <mxPoint x="190" y="180" as="targetPoint"/>
                    </mxGeometry>
                </mxCell>
                <mxCell id="YVTOUBuaeelvvUNHEdQm-36" value="" style="endArrow=none;html=1;rounded=0;entryX=0;entryY=0.5;entryDx=0;entryDy=0;exitX=1;exitY=0.5;exitDx=0;exitDy=0;" parent="1" source="YVTOUBuaeelvvUNHEdQm-3" target="YVTOUBuaeelvvUNHEdQm-13" edge="1">
                    <mxGeometry width="50" height="50" relative="1" as="geometry">
                        <mxPoint x="390" y="290" as="sourcePoint"/>
                        <mxPoint x="440" y="240" as="targetPoint"/>
                    </mxGeometry>
                </mxCell>
                <mxCell id="YVTOUBuaeelvvUNHEdQm-37" value="" style="endArrow=none;html=1;rounded=0;entryX=0;entryY=0.5;entryDx=0;entryDy=0;exitX=1;exitY=0.5;exitDx=0;exitDy=0;" parent="1" source="YVTOUBuaeelvvUNHEdQm-3" target="YVTOUBuaeelvvUNHEdQm-25" edge="1">
                    <mxGeometry width="50" height="50" relative="1" as="geometry">
                        <mxPoint x="390" y="290" as="sourcePoint"/>
                        <mxPoint x="440" y="240" as="targetPoint"/>
                    </mxGeometry>
                </mxCell>
                <mxCell id="YVTOUBuaeelvvUNHEdQm-38" value="" style="endArrow=none;html=1;rounded=0;entryX=0;entryY=0.5;entryDx=0;entryDy=0;exitX=1;exitY=0.5;exitDx=0;exitDy=0;" parent="1" source="YVTOUBuaeelvvUNHEdQm-15" target="YVTOUBuaeelvvUNHEdQm-17" edge="1">
                    <mxGeometry width="50" height="50" relative="1" as="geometry">
                        <mxPoint x="390" y="317.5" as="sourcePoint"/>
                        <mxPoint x="673.96" y="345.48" as="targetPoint"/>
                    </mxGeometry>
                </mxCell>
                <mxCell id="YVTOUBuaeelvvUNHEdQm-39" value="" style="endArrow=none;html=1;rounded=0;entryX=0;entryY=0.5;entryDx=0;entryDy=0;" parent="1" target="YVTOUBuaeelvvUNHEdQm-21" edge="1">
                    <mxGeometry width="50" height="50" relative="1" as="geometry">
                        <mxPoint x="620" y="377.5" as="sourcePoint"/>
                        <mxPoint x="440" y="267.5" as="targetPoint"/>
                    </mxGeometry>
                </mxCell>
                <mxCell id="YVTOUBuaeelvvUNHEdQm-40" value="" style="endArrow=none;html=1;rounded=0;entryX=0;entryY=0.5;entryDx=0;entryDy=0;exitX=0.5;exitY=1;exitDx=0;exitDy=0;" parent="1" source="YVTOUBuaeelvvUNHEdQm-15" target="YVTOUBuaeelvvUNHEdQm-27" edge="1">
                    <mxGeometry width="50" height="50" relative="1" as="geometry">
                        <mxPoint x="390" y="317.5" as="sourcePoint"/>
                        <mxPoint x="440" y="267.5" as="targetPoint"/>
                    </mxGeometry>
                </mxCell>
                <mxCell id="YVTOUBuaeelvvUNHEdQm-43" value="" style="ellipse;whiteSpace=wrap;html=1;" parent="1" vertex="1">
                    <mxGeometry x="550" y="482.5" width="120" height="60" as="geometry"/>
                </mxCell>
                <mxCell id="YVTOUBuaeelvvUNHEdQm-44" value="joukkue1prosentti" style="text;html=1;strokeColor=none;fillColor=none;align=center;verticalAlign=middle;whiteSpace=wrap;rounded=0;" parent="1" vertex="1">
                    <mxGeometry x="580" y="497.5" width="60" height="30" as="geometry"/>
                </mxCell>
                <mxCell id="YVTOUBuaeelvvUNHEdQm-45" value="" style="ellipse;whiteSpace=wrap;html=1;" parent="1" vertex="1">
                    <mxGeometry x="430" y="447.5" width="120" height="60" as="geometry"/>
                </mxCell>
                <mxCell id="YVTOUBuaeelvvUNHEdQm-46" value="Joukkue2prosentti" style="text;html=1;strokeColor=none;fillColor=none;align=center;verticalAlign=middle;whiteSpace=wrap;rounded=0;" parent="1" vertex="1">
                    <mxGeometry x="460" y="462.5" width="60" height="30" as="geometry"/>
                </mxCell>
                <mxCell id="YVTOUBuaeelvvUNHEdQm-47" value="" style="endArrow=none;html=1;rounded=0;exitX=0.5;exitY=0;exitDx=0;exitDy=0;" parent="1" source="YVTOUBuaeelvvUNHEdQm-43" edge="1">
                    <mxGeometry width="50" height="50" relative="1" as="geometry">
                        <mxPoint x="390" y="317.5" as="sourcePoint"/>
                        <mxPoint x="560" y="407.5" as="targetPoint"/>
                    </mxGeometry>
                </mxCell>
                <mxCell id="YVTOUBuaeelvvUNHEdQm-48" value="" style="endArrow=none;html=1;rounded=0;entryX=0.5;entryY=1;entryDx=0;entryDy=0;exitX=1;exitY=0.5;exitDx=0;exitDy=0;" parent="1" source="YVTOUBuaeelvvUNHEdQm-45" target="YVTOUBuaeelvvUNHEdQm-15" edge="1">
                    <mxGeometry width="50" height="50" relative="1" as="geometry">
                        <mxPoint x="390" y="317.5" as="sourcePoint"/>
                        <mxPoint x="440" y="267.5" as="targetPoint"/>
                    </mxGeometry>
                </mxCell>
                <mxCell id="YVTOUBuaeelvvUNHEdQm-49" value="" style="ellipse;whiteSpace=wrap;html=1;" parent="1" vertex="1">
                    <mxGeometry x="360" y="387.5" width="120" height="60" as="geometry"/>
                </mxCell>
                <mxCell id="YVTOUBuaeelvvUNHEdQm-50" value="tasan_prosentti" style="text;html=1;strokeColor=none;fillColor=none;align=center;verticalAlign=middle;whiteSpace=wrap;rounded=0;" parent="1" vertex="1">
                    <mxGeometry x="390" y="402.5" width="60" height="30" as="geometry"/>
                </mxCell>
                <mxCell id="YVTOUBuaeelvvUNHEdQm-51" value="" style="endArrow=none;html=1;rounded=0;exitX=1;exitY=0.5;exitDx=0;exitDy=0;entryX=0;entryY=0.5;entryDx=0;entryDy=0;" parent="1" source="YVTOUBuaeelvvUNHEdQm-49" target="YVTOUBuaeelvvUNHEdQm-15" edge="1">
                    <mxGeometry width="50" height="50" relative="1" as="geometry">
                        <mxPoint x="400" y="352.5" as="sourcePoint"/>
                        <mxPoint x="500" y="413" as="targetPoint"/>
                    </mxGeometry>
                </mxCell>
                <mxCell id="YVTOUBuaeelvvUNHEdQm-52" value="" style="rhombus;whiteSpace=wrap;html=1;" parent="1" vertex="1">
                    <mxGeometry x="345" y="210" width="130" height="80" as="geometry"/>
                </mxCell>
                <mxCell id="YVTOUBuaeelvvUNHEdQm-53" value="Veikkaus" style="text;html=1;strokeColor=none;fillColor=none;align=center;verticalAlign=middle;whiteSpace=wrap;rounded=0;" parent="1" vertex="1">
                    <mxGeometry x="375" y="235" width="60" height="30" as="geometry"/>
                </mxCell>
                <mxCell id="YVTOUBuaeelvvUNHEdQm-54" value="" style="rhombus;whiteSpace=wrap;html=1;" parent="1" vertex="1">
                    <mxGeometry x="495" y="240" width="130" height="80" as="geometry"/>
                </mxCell>
                <mxCell id="YVTOUBuaeelvvUNHEdQm-55" value="Kuuluu" style="text;html=1;strokeColor=none;fillColor=none;align=center;verticalAlign=middle;whiteSpace=wrap;rounded=0;" parent="1" vertex="1">
                    <mxGeometry x="530" y="267.5" width="60" height="30" as="geometry"/>
                </mxCell>
                <mxCell id="YVTOUBuaeelvvUNHEdQm-56" value="" style="endArrow=none;html=1;rounded=0;entryX=0.5;entryY=0;entryDx=0;entryDy=0;exitX=1;exitY=0.5;exitDx=0;exitDy=0;" parent="1" source="YVTOUBuaeelvvUNHEdQm-5" target="YVTOUBuaeelvvUNHEdQm-52" edge="1">
                    <mxGeometry width="50" height="50" relative="1" as="geometry">
                        <mxPoint x="390" y="230" as="sourcePoint"/>
                        <mxPoint x="440" y="180" as="targetPoint"/>
                    </mxGeometry>
                </mxCell>
                <mxCell id="YVTOUBuaeelvvUNHEdQm-57" value="" style="endArrow=none;html=1;rounded=0;entryX=0;entryY=0;entryDx=0;entryDy=0;exitX=0.5;exitY=1;exitDx=0;exitDy=0;" parent="1" source="YVTOUBuaeelvvUNHEdQm-52" target="YVTOUBuaeelvvUNHEdQm-15" edge="1">
                    <mxGeometry width="50" height="50" relative="1" as="geometry">
                        <mxPoint x="480" y="198" as="sourcePoint"/>
                        <mxPoint x="440" y="240" as="targetPoint"/>
                    </mxGeometry>
                </mxCell>
                <mxCell id="YVTOUBuaeelvvUNHEdQm-58" value="" style="endArrow=none;html=1;rounded=0;entryX=0.5;entryY=1;entryDx=0;entryDy=0;exitX=0.5;exitY=0;exitDx=0;exitDy=0;" parent="1" source="YVTOUBuaeelvvUNHEdQm-54" target="YVTOUBuaeelvvUNHEdQm-3" edge="1">
                    <mxGeometry width="50" height="50" relative="1" as="geometry">
                        <mxPoint x="400" y="250" as="sourcePoint"/>
                        <mxPoint x="450" y="200" as="targetPoint"/>
                    </mxGeometry>
                </mxCell>
                <mxCell id="YVTOUBuaeelvvUNHEdQm-59" value="" style="endArrow=none;html=1;rounded=0;entryX=0.5;entryY=1;entryDx=0;entryDy=0;exitX=0.5;exitY=0;exitDx=0;exitDy=0;" parent="1" source="YVTOUBuaeelvvUNHEdQm-15" target="YVTOUBuaeelvvUNHEdQm-54" edge="1">
                    <mxGeometry width="50" height="50" relative="1" as="geometry">
                        <mxPoint x="430" y="337.5" as="sourcePoint"/>
                        <mxPoint x="555" y="340" as="targetPoint"/>
                    </mxGeometry>
                </mxCell>
                <mxCell id="YVTOUBuaeelvvUNHEdQm-62" value="M" style="text;html=1;strokeColor=none;fillColor=none;align=center;verticalAlign=middle;whiteSpace=wrap;rounded=0;" parent="1" vertex="1">
                    <mxGeometry x="310" y="180" width="60" height="30" as="geometry"/>
                </mxCell>
                <mxCell id="YVTOUBuaeelvvUNHEdQm-65" value="M" style="text;html=1;strokeColor=none;fillColor=none;align=center;verticalAlign=middle;whiteSpace=wrap;rounded=0;" parent="1" vertex="1">
                    <mxGeometry x="520" y="322.5" width="60" height="30" as="geometry"/>
                </mxCell>
                <mxCell id="2" value="1" style="text;html=1;strokeColor=none;fillColor=none;align=center;verticalAlign=middle;whiteSpace=wrap;rounded=0;" parent="1" vertex="1">
                    <mxGeometry x="510" y="212.5" width="60" height="30" as="geometry"/>
                </mxCell>
                <mxCell id="YVTOUBuaeelvvUNHEdQm-20" value="VeikkausID" style="text;html=1;strokeColor=none;fillColor=none;align=center;verticalAlign=middle;whiteSpace=wrap;rounded=0;" parent="1" vertex="1">
                    <mxGeometry x="240" y="292.5" width="60" height="30" as="geometry"/>
                </mxCell>
                <mxCell id="6" value="" style="endArrow=none;html=1;rounded=0;exitX=0;exitY=0.5;exitDx=0;exitDy=0;entryX=1;entryY=0;entryDx=0;entryDy=0;" parent="1" source="YVTOUBuaeelvvUNHEdQm-52" target="YVTOUBuaeelvvUNHEdQm-19" edge="1">
                    <mxGeometry width="50" height="50" relative="1" as="geometry">
                        <mxPoint x="270" y="150" as="sourcePoint"/>
                        <mxPoint x="220" y="350" as="targetPoint"/>
                    </mxGeometry>
                </mxCell>
                <mxCell id="7" value="M" style="text;html=1;strokeColor=none;fillColor=none;align=center;verticalAlign=middle;whiteSpace=wrap;rounded=0;" parent="1" vertex="1">
                    <mxGeometry x="450" y="332.5" width="60" height="30" as="geometry"/>
                </mxCell>
            </root>
        </mxGraphModel>
    </diagram>
</mxfile>